<?xml version="1.0" encoding="UTF-8"?>
<svg id="Capa_2" data-name="Capa 2" xmlns="http://www.w3.org/2000/svg" viewBox="0 0 123.7 128.98">
  <defs>
    <style>
      .cls-1 {
        fill: #0a203a;
      }

      .cls-2 {
        fill: #f05d24;
      }
    </style>
  </defs>
  <g id="Capa_1-2" data-name="Capa 1">
    <g>
      <path class="cls-1" d="M0,92.98v33.34c0,1.04.84,1.88,1.88,1.88h31.46c1.04,0,1.88-.84,1.88-1.88V.59c0-.53-.64-.79-1.01-.42L2.6,31.78c-1.67,1.67-2.6,3.93-2.6,6.28v54.92Z"/>
      <path class="cls-1" d="M44.24,14.92v111.39c0,1.04.84,1.88,1.88,1.88h31.46c1.04,0,1.88-.84,1.88-1.88V49.82c0-.69-.27-1.34-.76-1.83L45.22,14.52c-.36-.36-.98-.11-.98.41Z"/>
      <path class="cls-2" d="M88.48,93.76v33.34c0,1.04.84,1.88,1.88,1.88h31.46c1.04,0,1.88-.84,1.88-1.88v-31.35c0-1.27-.5-2.49-1.4-3.39l-32.8-32.8c-.37-.37-1.01-.11-1.01.42v33.79Z"/>
      <path class="cls-2" d="M89.63,47.02l33.05,33.05c.37.37,1.01.11,1.01-.42v-42.08c0-1.53-.61-3-1.69-4.08L89.49.98c-.37-.37-1.01-.11-1.01.42v42.84c0,1.05.42,2.05,1.16,2.79Z"/>
    </g>
  </g>
</svg>