<?xml version="1.0" encoding="UTF-8"?>
<svg id="Capa_2" data-name="Capa 2" xmlns="http://www.w3.org/2000/svg" viewBox="0 0 362.5 128.98">
  <defs>
    <style>
      .cls-1 {
        fill: #0a203a;
      }

      .cls-2 {
        fill: #f05d24;
      }
    </style>
  </defs>
  <g id="Capa_1-2" data-name="Capa 1">
    <g>
      <g>
        <path class="cls-1" d="M182.44,82.55v10.48h-43.7v-56.44h42.65v10.48h-29.67v12.26h26.2v10.16h-26.2v13.06h30.72Z"/>
        <path class="cls-1" d="M192.84,36.59h13.06v45.8h28.3v10.64h-41.36v-56.44Z"/>
        <path class="cls-1" d="M241.54,36.59h13.06v56.44h-13.06v-56.44Z"/>
        <path class="cls-1" d="M279.67,47.23h-18.06v-10.64h49.18v10.64h-18.06v45.8h-13.06v-45.8Z"/>
        <path class="cls-1" d="M361.51,82.55v10.48h-43.7v-56.44h42.65v10.48h-29.67v12.26h26.2v10.16h-26.2v13.06h30.72Z"/>
      </g>
      <g>
        <path class="cls-1" d="M138.86,107.27h4.84v20.92h-4.84v-20.92Z"/>
        <path class="cls-1" d="M167.85,107.27v20.92h-3.98l-10.43-12.7v12.7h-4.78v-20.92h4l10.4,12.7v-12.7h4.78Z"/>
        <path class="cls-1" d="M191.86,128.2l-.03-12.55-6.16,10.34h-2.18l-6.13-10.07v12.29h-4.54v-20.92h4l7.83,13,7.71-13h3.98l.06,20.92h-4.54Z"/>
        <path class="cls-1" d="M200.05,117.73c0-6.22,4.84-10.82,11.45-10.82s11.45,4.57,11.45,10.82-4.87,10.82-11.45,10.82-11.45-4.6-11.45-10.82ZM218.04,117.73c0-3.98-2.81-6.7-6.55-6.7s-6.55,2.72-6.55,6.7,2.81,6.7,6.55,6.7,6.55-2.72,6.55-6.7Z"/>
        <path class="cls-1" d="M245.78,122.49c0,3.62-2.87,5.71-8.37,5.71h-10.82v-20.92h10.22c5.23,0,7.92,2.18,7.92,5.44,0,2.09-1.08,3.71-2.78,4.6,2.33.75,3.83,2.54,3.83,5.17ZM231.4,110.92v4.93h4.81c2.36,0,3.65-.84,3.65-2.48s-1.29-2.45-3.65-2.45h-4.81ZM240.91,121.98c0-1.76-1.34-2.6-3.86-2.6h-5.65v5.17h5.65c2.51,0,3.86-.78,3.86-2.57Z"/>
        <path class="cls-1" d="M249.46,107.27h4.84v20.92h-4.84v-20.92Z"/>
        <path class="cls-1" d="M259.26,107.27h4.84v16.98h10.49v3.95h-15.33v-20.92Z"/>
        <path class="cls-1" d="M277.31,107.27h4.84v20.92h-4.84v-20.92Z"/>
        <path class="cls-1" d="M300.9,123.71h-9.72l-1.85,4.48h-4.96l9.33-20.92h4.78l9.36,20.92h-5.08l-1.85-4.48ZM299.37,120.03l-3.32-8.01-3.32,8.01h6.64Z"/>
        <path class="cls-1" d="M323.34,128.2l-4.04-5.83h-4.45v5.83h-4.84v-20.92h9.06c5.59,0,9.09,2.9,9.09,7.59,0,3.14-1.58,5.44-4.3,6.61l4.69,6.73h-5.2ZM318.8,111.22h-3.95v7.29h3.95c2.96,0,4.45-1.38,4.45-3.65s-1.5-3.65-4.45-3.65Z"/>
        <path class="cls-1" d="M331.98,107.27h4.84v20.92h-4.84v-20.92Z"/>
        <path class="cls-1" d="M355.57,123.71h-9.72l-1.85,4.48h-4.96l9.33-20.92h4.78l9.36,20.92h-5.08l-1.85-4.48ZM354.04,120.03l-3.32-8.01-3.32,8.01h6.64Z"/>
      </g>
      <g>
        <path class="cls-1" d="M0,92.98v33.34c0,1.04.84,1.88,1.88,1.88h31.46c1.04,0,1.88-.84,1.88-1.88V.59c0-.53-.64-.79-1.01-.42L2.6,31.78c-1.67,1.67-2.6,3.93-2.6,6.28v54.92Z"/>
        <path class="cls-1" d="M44.24,14.92v111.39c0,1.04.84,1.88,1.88,1.88h31.46c1.04,0,1.88-.84,1.88-1.88V49.82c0-.69-.27-1.34-.76-1.83L45.22,14.52c-.36-.36-.98-.11-.98.41Z"/>
        <g>
          <path class="cls-2" d="M88.48,93.76v33.34c0,1.04.84,1.88,1.88,1.88h31.46c1.04,0,1.88-.84,1.88-1.88v-31.35c0-1.27-.5-2.49-1.4-3.39l-32.8-32.8c-.37-.37-1.01-.11-1.01.42v33.79Z"/>
          <path class="cls-2" d="M89.63,47.02l33.05,33.05c.37.37,1.01.11,1.01-.42v-42.08c0-1.53-.61-3-1.69-4.08L89.49.98c-.37-.37-1.01-.11-1.01.42v42.84c0,1.05.42,2.05,1.16,2.79Z"/>
        </g>
      </g>
    </g>
  </g>
</svg>